<?xml version="1.0" standalone="no"?>
<!DOCTYPE svg PUBLIC "-//W3C//DTD SVG 20010904//EN"
 "http://www.w3.org/TR/2001/REC-SVG-20010904/DTD/svg10.dtd">
<svg version="1.0" xmlns="http://www.w3.org/2000/svg"
 width="2947.000000pt" height="2947.000000pt" viewBox="0 0 2947.000000 2947.000000"
 preserveAspectRatio="xMidYMid meet">
<metadata>
Created by potrace 1.14, written by Peter Selinger 2001-2017
</metadata>
<g transform="translate(0.000000,2947.000000) scale(0.100000,-0.100000)"
fill="#000000" stroke="none">
<path d="M14410 24838 c-96 -55 -197 -112 -225 -127 -27 -15 -225 -126 -440
-248 -214 -121 -411 -232 -437 -246 -26 -15 -83 -46 -125 -70 -43 -25 -96 -55
-118 -67 -79 -44 -250 -141 -265 -150 -8 -5 -89 -50 -180 -101 -91 -51 -173
-99 -182 -107 -10 -8 -18 -12 -18 -9 0 4 -25 -9 -55 -28 -30 -19 -56 -35 -58
-35 -3 0 -40 -20 -82 -44 l-77 -44 41 -26 c22 -14 42 -26 45 -26 2 0 52 -28
112 -63 60 -35 134 -77 164 -94 30 -16 73 -40 95 -53 22 -12 252 -141 510
-287 259 -146 492 -278 518 -294 27 -16 50 -29 52 -29 2 0 26 -13 53 -29 27
-16 76 -44 108 -62 49 -27 351 -197 459 -259 17 -9 50 -28 75 -42 89 -50 126
-71 167 -95 l41 -24 114 64 c62 36 133 76 158 90 25 14 105 59 179 101 73 42
136 76 138 76 3 0 17 8 31 18 15 11 52 32 82 49 30 16 123 68 205 115 83 47
173 97 200 113 28 15 113 64 190 108 77 44 160 91 185 105 25 14 142 80 260
147 118 67 242 137 275 155 33 18 65 36 70 40 6 4 35 21 65 37 57 31 172 96
248 140 l44 25 -29 17 c-15 10 -53 31 -83 48 -98 54 -275 153 -290 163 -8 5
-32 19 -52 30 -20 11 -121 67 -225 126 -103 59 -381 215 -618 349 -236 133
-556 313 -710 400 -154 87 -298 168 -320 180 -22 12 -56 32 -75 43 -19 12 -37
22 -40 21 -3 0 -84 -45 -180 -101z"/>
<path d="M11770 23341 c-65 -39 -629 -357 -825 -466 -22 -12 -58 -32 -80 -45
-22 -13 -65 -36 -95 -53 -30 -16 -59 -33 -65 -37 -8 -6 -343 -195 -545 -308
-50 -28 -92 -52 -147 -83 -21 -12 -87 -50 -148 -84 -60 -34 -126 -71 -145 -82
-65 -37 -245 -137 -273 -153 -15 -8 -27 -19 -27 -25 0 -8 125 -82 360 -212 25
-14 59 -33 75 -43 17 -10 53 -30 80 -45 28 -15 102 -57 165 -93 63 -36 135
-76 160 -90 44 -25 239 -134 455 -257 61 -34 166 -94 235 -132 171 -96 591
-332 725 -408 61 -34 125 -70 143 -79 l33 -17 172 97 c95 54 253 143 352 199
540 306 1025 581 1065 603 25 14 119 67 208 118 90 52 166 94 169 94 3 0 17 8
31 19 15 10 56 34 92 53 62 34 333 187 337 192 3 2 -206 122 -552 316 -22 12
-69 39 -105 60 -36 20 -87 50 -115 65 -27 15 -273 154 -545 308 -272 154 -515
291 -540 305 -25 14 -163 92 -307 174 -144 81 -266 148 -270 148 -4 -1 -37
-18 -73 -39z"/>
<path d="M17195 23308 c-66 -38 -146 -84 -177 -102 -31 -17 -175 -98 -320
-180 -335 -190 -282 -160 -583 -330 -143 -80 -267 -151 -275 -155 -17 -10
-613 -350 -645 -367 -11 -6 -51 -29 -90 -51 -38 -22 -97 -55 -130 -73 -33 -18
-63 -36 -68 -39 -4 -4 48 -38 115 -77 67 -38 132 -74 143 -81 11 -7 27 -16 35
-20 8 -4 40 -21 70 -38 130 -74 1098 -622 1185 -670 28 -16 131 -74 230 -130
99 -56 200 -114 225 -127 25 -14 129 -73 233 -132 103 -58 190 -106 193 -106
3 0 36 17 72 39 37 21 87 49 112 63 25 14 119 67 210 118 91 52 215 121 275
155 61 35 128 73 150 85 22 12 132 74 245 138 113 63 250 140 305 172 55 31
123 70 150 85 28 15 68 37 90 50 22 12 130 73 240 135 110 62 250 141 310 175
61 35 133 75 160 91 28 15 63 34 78 43 38 21 36 30 -9 56 -22 12 -217 123
-434 245 -217 123 -440 249 -495 280 -423 238 -848 478 -888 502 -26 15 -50
28 -52 28 -3 0 -34 18 -70 40 -36 22 -67 40 -69 40 -2 0 -60 32 -128 71 -178
103 -247 139 -261 138 -6 0 -66 -32 -132 -71z"/>
<path d="M14469 21764 c-62 -36 -134 -77 -159 -90 -25 -13 -52 -29 -60 -34 -8
-5 -62 -36 -120 -69 -58 -32 -188 -106 -290 -164 -102 -57 -207 -117 -234
-132 -28 -15 -72 -41 -98 -56 -27 -16 -51 -29 -53 -29 -2 0 -39 -21 -82 -46
-43 -26 -100 -59 -128 -74 -27 -15 -126 -71 -219 -124 -93 -53 -170 -96 -172
-96 -2 0 -33 -18 -69 -40 -36 -22 -68 -40 -71 -40 -3 0 -18 -8 -32 -18 -15
-11 -56 -35 -92 -54 -36 -20 -140 -79 -233 -132 -92 -53 -171 -96 -176 -96 -5
0 -14 -6 -20 -13 -8 -11 -5 -17 16 -28 15 -8 71 -38 123 -68 52 -29 115 -65
140 -79 25 -14 110 -62 190 -107 136 -77 169 -95 288 -162 26 -14 115 -64 197
-111 83 -47 170 -96 195 -110 25 -14 95 -53 155 -87 61 -35 133 -75 160 -90
28 -16 118 -66 200 -113 83 -47 175 -99 205 -115 30 -16 60 -33 65 -37 10 -8
286 -163 395 -222 30 -17 65 -37 77 -44 24 -15 -3 -29 383 189 58 32 134 75
170 95 36 20 102 57 148 84 46 26 86 48 89 48 3 0 17 8 31 18 15 11 56 35 92
54 36 19 94 52 130 73 36 20 90 51 120 68 116 64 387 216 420 235 19 12 80 46
135 77 55 31 123 69 150 85 28 17 57 33 65 37 8 3 65 34 125 69 109 62 134 76
313 176 51 28 89 55 85 59 -7 7 -254 148 -683 391 -58 32 -112 63 -120 68 -15
9 -261 148 -350 198 -25 13 -74 42 -110 62 -36 20 -85 48 -110 62 -25 14 -130
74 -235 133 -104 59 -210 119 -235 133 -25 14 -117 66 -205 117 -88 50 -167
94 -175 98 -8 4 -24 13 -35 20 -40 24 -173 97 -177 97 -2 0 -56 -30 -119 -66z"/>
<path d="M9420 18988 c-1 -4423 0 -4833 5 -4863 41 -221 156 -372 375 -492 30
-16 125 -70 210 -120 85 -50 228 -132 318 -184 90 -52 184 -107 210 -122 26
-15 56 -32 67 -37 11 -6 27 -14 35 -20 17 -11 287 -167 430 -248 19 -11 152
-87 295 -169 654 -377 810 -467 960 -553 190 -110 804 -463 925 -532 47 -27
92 -53 100 -58 8 -6 67 -39 130 -75 63 -36 122 -70 130 -75 8 -5 29 -17 45
-26 17 -9 192 -110 390 -224 456 -263 434 -251 438 -242 3 6 1 1455 -2 1474
-1 3 -13 13 -28 20 -16 8 -134 75 -263 150 -129 75 -302 175 -385 222 -82 47
-157 91 -165 96 -8 6 -22 13 -30 17 -8 3 -39 21 -68 40 -29 18 -54 33 -56 33
-3 0 -39 20 -80 45 -42 25 -79 45 -82 45 -3 0 -17 9 -32 19 -21 15 -722 421
-912 529 -19 10 -118 68 -220 127 -102 59 -203 117 -225 130 -22 12 -91 52
-154 89 -62 36 -115 66 -118 66 -2 0 -16 9 -31 19 -15 10 -155 92 -312 182
-157 89 -313 182 -347 206 -120 84 -213 230 -249 388 -6 29 -13 2372 -14 4675
l0 1066 -362 209 c-200 115 -475 274 -613 353 -137 79 -265 153 -282 164 l-33
20 0 -2344z"/>
<path d="M19730 21300 c-14 -11 -28 -20 -31 -20 -3 0 -73 -39 -155 -86 -82
-47 -167 -96 -189 -108 -22 -13 -146 -84 -275 -158 -129 -74 -255 -146 -280
-160 -25 -14 -121 -69 -215 -123 -93 -54 -183 -106 -200 -115 -32 -18 -438
-250 -493 -281 -18 -11 -66 -38 -105 -61 -40 -22 -133 -75 -207 -118 -74 -42
-272 -155 -440 -252 -168 -96 -325 -186 -350 -200 -25 -14 -164 -94 -310 -178
-146 -84 -312 -179 -370 -212 -58 -33 -121 -68 -140 -80 -19 -11 -107 -61
-195 -110 -88 -50 -171 -98 -185 -107 -14 -8 -38 -23 -55 -32 -16 -9 -106 -60
-200 -114 -93 -54 -190 -109 -215 -123 -254 -142 -323 -203 -432 -382 -26 -43
-67 -167 -79 -238 -11 -68 -16 -3700 -5 -3751 36 -167 224 -271 382 -211 14 6
99 52 187 104 89 51 178 103 197 114 19 10 76 43 125 72 50 29 108 62 130 75
98 55 573 329 595 343 14 9 39 23 55 32 17 9 86 49 155 89 69 41 145 85 170
99 25 14 184 106 354 204 170 99 339 196 375 217 36 21 111 64 166 96 55 32
114 66 130 75 17 9 179 103 361 209 359 207 373 212 439 171 60 -37 60 -37 59
-570 0 -267 -3 -512 -7 -545 -13 -130 -82 -262 -186 -357 -47 -43 -188 -131
-356 -224 -55 -30 -485 -280 -517 -301 -21 -12 -40 -23 -42 -23 -4 0 -53 -28
-296 -170 -36 -21 -166 -97 -290 -168 -124 -71 -239 -138 -257 -148 -69 -41
-330 -191 -378 -217 -27 -16 -83 -49 -123 -73 -40 -24 -74 -44 -77 -44 -2 0
-37 -20 -78 -44 -41 -24 -180 -105 -308 -179 -129 -74 -304 -175 -389 -224
-85 -50 -227 -132 -315 -182 -88 -51 -162 -96 -165 -101 -4 -7 -5 -1440 -1
-1462 0 -3 50 22 111 57 60 35 129 75 152 88 24 14 88 50 143 82 55 31 118 67
140 80 22 12 285 163 585 336 300 172 572 328 605 346 33 19 67 38 75 43 22
14 119 70 165 95 22 12 132 75 245 140 113 65 221 127 240 138 19 10 114 65
210 120 96 55 285 163 420 240 135 77 259 148 275 157 17 10 68 40 115 66 47
27 92 53 101 59 9 5 38 22 65 37 27 14 111 63 188 107 76 45 141 81 143 81 3
0 17 8 31 18 27 19 147 86 189 106 13 6 23 14 23 19 0 4 4 7 8 7 4 0 107 57
227 126 121 69 245 139 275 156 173 96 266 202 321 364 l24 69 0 1870 0 1870
-32 66 c-55 113 -162 185 -284 193 -114 7 -96 16 -779 -379 -135 -78 -265
-153 -290 -167 -25 -14 -155 -89 -289 -167 -134 -78 -263 -153 -285 -165 -41
-23 -147 -84 -333 -193 -54 -31 -129 -74 -168 -96 -38 -22 -180 -104 -315
-182 -933 -540 -984 -568 -1018 -568 -23 0 -42 8 -60 27 l-27 26 0 638 1 637
23 48 c37 76 83 114 230 194 13 7 49 28 80 47 31 18 76 45 101 58 25 14 142
81 260 150 118 69 235 136 260 150 25 14 61 34 80 45 19 12 105 61 190 111 85
49 270 156 410 237 140 82 271 157 290 167 69 38 96 54 190 110 52 30 112 65
133 77 50 28 67 38 332 191 127 73 244 141 260 150 17 10 145 84 285 165 140
81 280 161 310 178 30 16 62 36 71 43 8 8 19 14 22 14 4 0 24 11 45 23 20 13
60 36 87 52 131 72 211 120 217 128 3 6 6 342 6 749 0 550 -3 738 -11 738 -7
0 -23 -9 -37 -20z"/>
<path d="M6917 7474 c-1 -1 -54 -4 -117 -8 -120 -7 -129 -8 -245 -32 -75 -15
-224 -62 -240 -74 -5 -5 -14 -8 -18 -9 -20 0 -141 -65 -203 -108 -178 -124
-339 -342 -408 -554 -73 -225 -74 -250 -75 -1192 -1 -918 -3 -889 57 -904 15
-3 163 -6 329 -6 336 0 357 3 369 56 4 18 8 174 9 348 0 249 3 320 14 333 12
14 66 16 520 16 301 0 512 -4 521 -10 13 -8 15 -56 16 -325 1 -173 5 -331 8
-350 13 -67 18 -68 376 -68 353 0 361 1 377 64 9 35 9 1667 0 1714 -3 17 -8
55 -12 85 -41 329 -213 628 -462 800 -143 100 -364 183 -543 204 -92 11 -268
24 -273 20z m168 -729 c150 -44 260 -152 316 -310 26 -75 37 -134 44 -242 7
-112 0 -160 -26 -168 -11 -4 -243 -7 -516 -7 -433 1 -498 2 -511 16 -22 22
-20 196 3 315 36 186 162 339 321 391 92 31 272 33 369 5z"/>
<path d="M12828 7476 c-1 -2 -50 -6 -108 -10 -127 -7 -148 -11 -272 -42 -189
-47 -321 -105 -489 -215 -52 -34 -114 -82 -138 -107 -64 -67 -59 -89 65 -277
54 -82 101 -154 103 -160 12 -30 86 -117 104 -124 27 -10 53 1 142 60 191 128
305 169 485 177 101 4 137 1 185 -13 173 -49 262 -153 270 -312 6 -118 -35
-225 -143 -368 -97 -132 -166 -206 -677 -730 -167 -170 -370 -379 -451 -463
-198 -202 -223 -251 -150 -289 28 -15 139 -16 1149 -16 888 0 1122 2 1141 12
47 25 49 43 49 334 0 301 -1 307 -61 332 -20 9 -140 12 -425 12 -219 0 -400 2
-402 5 -4 4 25 36 194 213 143 150 198 212 316 350 42 49 131 186 163 250 71
141 92 248 88 435 -4 166 -22 251 -82 376 -73 156 -207 304 -347 386 -114 66
-310 141 -405 154 -26 3 -56 8 -67 10 -11 3 -63 7 -115 10 -52 3 -100 7 -107
9 -6 2 -13 2 -15 1z"/>
<path d="M15548 7475 c-2 -1 -46 -5 -99 -9 -53 -3 -121 -11 -150 -16 -30 -6
-67 -13 -84 -16 -80 -14 -251 -80 -326 -127 -197 -121 -347 -326 -388 -528
-20 -101 -21 -114 -21 -214 0 -159 20 -266 71 -368 128 -259 337 -386 869
-528 290 -77 372 -113 409 -180 25 -44 27 -108 6 -150 -20 -38 -83 -83 -148
-106 -75 -26 -313 -25 -417 1 -139 35 -273 95 -404 181 -108 69 -120 75 -146
70 -36 -7 -47 -21 -183 -225 -145 -218 -161 -249 -153 -295 8 -40 36 -66 160
-150 160 -108 377 -202 556 -241 36 -8 74 -17 85 -19 116 -28 478 -26 620 3
143 29 147 30 227 58 186 66 332 166 433 298 121 159 179 338 178 546 -1 272
-92 459 -297 612 -143 107 -334 184 -656 267 -274 70 -367 112 -400 176 -23
46 -20 137 6 172 102 137 395 143 673 12 47 -22 128 -68 180 -103 53 -35 109
-66 124 -70 39 -9 75 19 122 96 22 35 43 68 48 73 22 26 171 264 183 291 22
52 5 98 -48 135 -18 13 -35 26 -38 30 -3 3 -43 31 -90 61 -246 159 -493 240
-765 254 -55 3 -108 6 -117 8 -9 2 -18 3 -20 1z"/>
<path d="M18397 7474 c-1 -1 -40 -4 -87 -8 -47 -3 -94 -8 -105 -10 -11 -2 -54
-9 -95 -16 -101 -17 -289 -79 -390 -129 -386 -193 -647 -515 -749 -923 -43
-172 -56 -366 -39 -568 37 -412 265 -800 603 -1028 88 -59 268 -146 365 -177
210 -66 342 -84 580 -79 91 1 176 5 190 8 14 2 41 7 60 10 70 11 187 38 260
61 6 2 27 10 100 39 224 87 453 260 596 451 62 83 137 206 149 247 4 13 11 28
15 33 24 30 89 247 104 347 26 169 26 388 1 533 -89 507 -399 896 -870 1090
-100 41 -238 79 -331 91 -23 2 -53 7 -65 10 -33 6 -286 22 -292 18z m190 -718
c373 -81 593 -361 594 -756 0 -347 -178 -614 -482 -721 -197 -70 -420 -55
-610 41 -85 43 -201 148 -244 219 -112 191 -147 361 -120 586 5 39 9 72 10 75
1 3 7 25 14 50 38 141 142 296 251 375 96 69 232 125 335 137 39 5 223 0 252
-6z"/>
<path d="M24157 7474 c-1 -1 -49 -5 -107 -9 -140 -8 -158 -11 -276 -40 -370
-89 -613 -275 -772 -590 -67 -135 -104 -264 -126 -445 -16 -130 -21 -1696 -5
-1746 17 -53 38 -57 362 -57 161 0 309 3 330 7 65 12 67 26 67 400 0 311 1
326 19 336 13 6 194 10 520 10 441 0 501 -2 515 -16 14 -13 16 -56 17 -307 0
-379 0 -372 31 -404 l27 -26 326 0 327 0 26 27 27 26 1 828 c1 455 -2 859 -7
897 -5 39 -11 89 -14 112 -3 24 -16 85 -30 135 -133 512 -522 814 -1100 854
-49 3 -105 7 -123 8 -18 1 -33 1 -35 0z m180 -729 c145 -42 249 -138 309 -285
13 -31 26 -70 29 -86 27 -128 33 -309 12 -338 -12 -16 -47 -18 -522 -18 -485
0 -509 1 -522 18 -19 27 -15 196 7 307 49 235 185 378 400 416 69 12 222 5
287 -14z"/>
<path d="M958 7401 c-18 -9 -35 -27 -39 -41 -4 -14 -7 -627 -8 -1363 -1 -1466
-4 -1388 56 -1404 15 -3 431 -6 925 -6 987 0 934 -4 955 60 5 15 8 151 8 301
-1 256 -2 274 -21 299 -11 15 -32 30 -45 34 -14 3 -259 6 -545 6 -285 0 -529
3 -541 7 -21 7 -23 13 -24 89 0 45 0 501 -1 1012 0 670 -3 940 -12 965 -17 55
-40 58 -379 58 -253 -1 -302 -3 -329 -17z"/>
<path d="M3205 7412 c-61 -13 -67 -41 -67 -331 1 -289 4 -305 63 -321 25 -7
356 -9 973 -8 l935 3 23 23 c23 22 23 27 25 285 2 150 -2 275 -7 292 -21 63
36 60 -990 61 -514 0 -944 -1 -955 -4z"/>
<path d="M8822 7408 c-59 -16 -62 -37 -59 -379 l2 -304 615 -1 c586 -1 620 -2
715 -22 164 -35 281 -92 376 -183 137 -133 191 -271 193 -494 0 -120 -2 -148
-23 -239 -24 -102 -108 -245 -182 -310 -47 -42 -145 -106 -163 -106 -8 0 -16
-3 -18 -8 -3 -8 -125 -49 -168 -57 -14 -3 -36 -7 -50 -10 -59 -11 -133 -15
-312 -17 -175 -1 -192 1 -205 17 -10 15 -13 83 -13 321 0 233 -3 303 -12 306
-7 2 -179 4 -383 4 l-370 -1 -2 -629 c-3 -700 -4 -687 60 -702 67 -15 1225 -7
1312 10 11 2 42 7 68 10 27 4 59 10 70 12 12 3 44 9 71 14 100 20 254 74 361
125 136 66 151 75 250 151 138 105 252 239 337 395 56 101 127 310 144 420 2
19 8 57 12 84 4 28 7 138 6 245 -1 216 -17 321 -76 489 -164 467 -570 768
-1143 846 -16 2 -48 7 -70 11 -65 10 -1306 13 -1343 2z"/>
<path d="M20448 7404 c-13 -7 -30 -25 -36 -39 -10 -21 -12 -335 -12 -1361 0
-1474 -4 -1395 62 -1410 58 -13 1810 -9 1836 5 43 23 46 43 47 316 1 280 -2
317 -35 349 -20 21 -26 21 -566 22 -460 1 -548 4 -560 16 -12 12 -14 158 -14
1022 -1 1114 2 1067 -62 1084 -55 15 -630 12 -660 -4z"/>
<path d="M26073 7409 c-12 -4 -30 -20 -40 -35 -16 -24 -17 -56 -18 -312 0
-186 3 -286 10 -288 5 -2 280 -5 610 -7 576 -4 603 -5 669 -25 88 -28 145 -61
193 -115 58 -66 78 -132 77 -252 -1 -86 -4 -108 -27 -157 -57 -126 -221 -232
-407 -263 -19 -3 -42 -8 -50 -10 -8 -2 -22 -4 -31 -4 -9 -1 -28 -12 -43 -26
-26 -24 -26 -26 -11 -60 8 -20 56 -109 107 -198 50 -89 102 -181 114 -204 12
-23 53 -95 90 -160 37 -65 77 -136 90 -158 38 -70 133 -239 143 -255 6 -8 24
-41 41 -73 83 -155 123 -199 195 -213 22 -4 189 -7 372 -7 294 0 334 2 357 17
40 25 33 60 -30 167 -31 51 -64 108 -74 124 -10 17 -127 212 -261 434 -133
223 -238 406 -233 408 5 2 33 18 63 36 29 17 63 37 75 44 35 20 131 115 173
173 66 89 107 184 131 300 9 45 9 312 0 367 -68 410 -337 646 -828 727 -52 8
-117 18 -145 22 -75 10 -1286 13 -1312 3z"/>
<path d="M3265 6342 c-127 -11 -125 -5 -126 -331 -1 -231 1 -263 17 -290 10
-16 27 -32 38 -35 38 -10 1883 -7 1910 4 49 18 54 44 55 313 1 275 -5 308 -56
328 -19 7 -311 11 -918 12 -490 1 -903 1 -920 -1z"/>
<path d="M26050 5920 l-35 -5 0 -630 c1 -667 1 -661 48 -686 31 -17 644 -17
675 0 46 25 46 21 46 688 l1 633 -25 1 c-168 3 -683 3 -710 -1z"/>
<path d="M3204 5252 c-12 -2 -32 -14 -45 -28 -24 -26 -24 -26 -25 -282 0 -141
2 -270 6 -286 3 -16 17 -38 32 -49 26 -20 43 -20 966 -20 735 0 946 2 970 12
52 22 57 50 56 333 -2 267 -5 287 -47 310 -17 9 -235 12 -957 13 -514 0 -945
-1 -956 -3z"/>
</g>
</svg>
